<?xml version="1.0" standalone="no"?><!DOCTYPE svg PUBLIC "-//W3C//DTD SVG 1.1//EN" "http://www.w3.org/Graphics/SVG/1.1/DTD/svg11.dtd"><svg class="icon" width="200px" height="200.00px" viewBox="0 0 1024 1024" version="1.1" xmlns="http://www.w3.org/2000/svg"><path d="M594.29 181.61v279.63h274c-2.94-74.61-29-144-79.26-199.74-41.74-46.26-112.71-85-183.18-90.58a10.72 10.72 0 0 0-11.56 10.69z" fill="#BAD4FF" /><path d="M914.61 486.72H552.9a13.39 13.39 0 0 1-13.39-13.39V111.62a13.38 13.38 0 0 1 13.39-13.39A375.16 375.16 0 0 1 928 473.33a13.4 13.4 0 0 1-13.39 13.39z m-348.33-26.78H901c-3.42-87-40.08-171.24-101.75-232.91s-145.97-98.34-232.97-101.76z" fill="#3585F9" /><path d="M848.2 546.76a13.39 13.39 0 1 0-26.77 0c0 192.07-156.27 348.32-348.33 348.32S124.78 738.83 124.78 546.76 281 198.43 473.1 198.43h0.17a13.39 13.39 0 1 0 0-26.77h-0.17C266.27 171.66 98 339.93 98 546.76s168.27 375.1 375.1 375.1 375.1-168.28 375.1-375.1z" fill="#3585F9" /></svg>