<?xml version="1.0" standalone="no"?><!DOCTYPE svg PUBLIC "-//W3C//DTD SVG 1.1//EN" "http://www.w3.org/Graphics/SVG/1.1/DTD/svg11.dtd"><svg class="icon" width="200px" height="200.00px" viewBox="0 0 1024 1024" version="1.1" xmlns="http://www.w3.org/2000/svg"><path fill="#333333" d="M569.121975 168.950923l0 373.86492 0.818645 0.929162L318.699506 790.797727c61.320601 51.621704 140.468219 82.741469 226.91201 82.741469 194.805778 0 352.721367-157.914566 352.721367-352.732623C898.333906 333.909929 752.955864 181.066869 569.121975 168.950923zM171.243129 532.058848c5.550413 84.286662 40.711214 160.478971 95.16236 218.293725l276.701996-218.293725L171.243129 532.058848zM529.928325 117.112278c-207.791533 0-376.227734 168.447457-376.227734 376.23899l376.227734 0L529.928325 117.112278zM569.121975 542.816866 568.477292 542.085202 565.620221 544.338522 569.121975 544.338522Z" /></svg>