<?xml version="1.0" standalone="no"?><!DOCTYPE svg PUBLIC "-//W3C//DTD SVG 1.1//EN" "http://www.w3.org/Graphics/SVG/1.1/DTD/svg11.dtd"><svg class="icon" width="200px" height="200.00px" viewBox="0 0 1024 1024" version="1.1" xmlns="http://www.w3.org/2000/svg"><path fill="#333333" d="M627.3 240.9V328c0 1.7-1.3 3-3 3H399.7c-1.7 0-3-1.3-3-3v-87.1h230.6m148.1-48H248.6c-31.3 0-56.6 25.4-56.6 56.6v526.8c0 31.3 25.3 56.6 56.6 56.6h526.8c31.3 0 56.6-25.3 56.6-56.6V249.6c0-31.3-25.3-56.7-56.6-56.7zM399.7 379h224.6c28.2 0 51-22.8 51-51v-83.5h90.3c7.2 0 14.8 4.8 14.8 16.4v499.7c0 11.4-9.2 20.6-20.6 20.6H264.3c-11.4 0-20.6-9.2-20.6-20.6V265.2c0-11.4 9.2-20.6 20.6-20.6h84.5V328c-0.1 28.2 22.7 51 50.9 51zM690.5 492.4H334c-13.3 0-24 10.7-24 24s10.7 24 24 24h356.5c13.3 0 24-10.7 24-24s-10.7-24-24-24zM522.4 622.8H334c-13.3 0-24 10.7-24 24s10.7 24 24 24h188.4c13.3 0 24-10.7 24-24 0-13.2-10.7-24-24-24z" /></svg>