<?xml version="1.0" standalone="no"?><!DOCTYPE svg PUBLIC "-//W3C//DTD SVG 1.1//EN" "http://www.w3.org/Graphics/SVG/1.1/DTD/svg11.dtd"><svg class="icon" width="200px" height="200.00px" viewBox="0 0 1024 1024" version="1.1" xmlns="http://www.w3.org/2000/svg"><path fill="#333333" d="M827.4 86.3H164.8c-55.5 0-100.6 45.1-100.6 100.6v628.8c0 55.5 45.1 100.6 100.6 100.6h662.6c55.5 0 100.6-45.1 100.6-100.7V186.9c0-55.5-45.1-100.6-100.6-100.6z m0 769.5H164.8c-22.1 0-40.2-18-40.2-40.2V186.9c0-22.1 18-40.2 40.2-40.2h662.6c22.1 0 40.2 18 40.2 40.2v95.6H716.7c-16.7 0-30.2 13.5-30.2 30.2s13.5 30.2 30.2 30.2h150.9v120.6H716.7c-16.7 0-30.2 13.5-30.2 30.2s13.5 30.2 30.2 30.2h150.9v120.7H716.7c-16.7 0-30.2 13.5-30.2 30.2S700 705 716.7 705h150.9v110.6c0 22.1-18 40.2-40.2 40.2zM506.5 498.4c28.1-25.9 45.7-63 45.7-104.2 0-78.2-63.7-141.8-141.9-141.8S268.5 316 268.5 394.2c0 41.1 17.6 78.2 45.6 104.1-70.8 35.4-119.5 108.6-119.5 193 0 16.7 13.5 30.2 30.2 30.2S255 708 255 691.3c0-85.7 69.7-155.3 155.3-155.3s155.3 69.7 155.3 155.3c0 16.7 13.5 30.2 30.2 30.2S626 708 626 691.3c0-84.3-48.8-157.5-119.5-192.9z m-96.2-185.7c45 0 81.5 36.6 81.5 81.5s-36.6 81.5-81.5 81.5-81.5-36.6-81.5-81.5 36.6-81.5 81.5-81.5z" /></svg>